<svg xmlns="http://www.w3.org/2000/svg" width="612" height="612"><path fill="#fff" d="M306 0C137.269 0 0 137.269 0 306s137.269 306 306 306 306-137.27 306-306S474.73 0 306 0zm0 572.192C159.223 572.192 39.81 452.78 39.81 306S159.223 39.81 306 39.81 572.19 159.223 572.19 306 452.78 572.192 306 572.192zm124.829-216.328a19.913 19.913 0 0 0-27.5 6.043 103.917 103.917 0 1 1-1.428-113.992 19.9 19.9 0 1 0 32.984-22.289 143.662 143.662 0 0 0-119.165-63.354C236.47 162.272 172 226.747 172 306s64.47 143.728 143.72 143.728a143.208 143.208 0 0 0 121.151-66.37 19.907 19.907 0 0 0-6.042-27.494z"/></svg>