<svg xmlns="http://www.w3.org/2000/svg" width="103" height="134.969"><defs><style>.cls-2,.cls-3{fill:#a9b68d}.cls-2,.cls-4{fill-rule:evenodd}.cls-4{fill:none;stroke:#a9b68d;stroke-width:6px;opacity:.7}</style><filter id="filter" filterUnits="userSpaceOnUse"><feFlood result="flood" flood-color="#91aa59"/><feComposite result="composite" operator="in" in2="SourceGraphic"/><feBlend result="blend" in2="SourceGraphic"/></filter></defs><g id="Группа_8" data-name="Группа 8"><path id="_222" data-name="222" class="cls-2" d="M25.573 109.29a12.9 12.9 0 1 1 13.182-12.57 12.923 12.923 0 0 1-13.182 12.57z" transform="translate(-13 -14)"/><circle id="_333" data-name="333" class="cls-3" cx="12.734" cy="43.672" r="5.953"/></g><circle id="_22" data-name="22" class="cls-3" cx="52.516" cy="82.391" r="12.891"/><circle id="_33" data-name="33" class="cls-3" cx="53.391" cy="43.703" r="12.891"/><path id="_44" data-name="44" class="cls-2" d="M67.147 24.97a4.961 4.961 0 1 1 5.07-4.835 4.971 4.971 0 0 1-5.07 4.835z" transform="translate(-13 -14)"/><path id="_11" data-name="11" class="cls-4" d="M64.337 145.98a12.9 12.9 0 1 1 13.183-12.57 12.923 12.923 0 0 1-13.183 12.57z" transform="translate(-13 -14)"/><circle id="_2" data-name="2" class="cls-3" cx="90.125" cy="82.328" r="12.875"/><path id="_3" data-name="3" class="cls-4" d="M103.837 66.577a8.929 8.929 0 1 1 9.127-8.7 8.946 8.946 0 0 1-9.127 8.7z" transform="translate(-13 -14)"/><circle id="_4" data-name="4" class="cls-3" cx="90.953" cy="5.953" r="5.953"/><path id="_1" data-name="1" class="cls-2" d="M102.087 141.961a8.93 8.93 0 1 1 9.126-8.7 8.948 8.948 0 0 1-9.126 8.7z" transform="translate(-13 -14)"/></svg>