<svg xmlns="http://www.w3.org/2000/svg" xmlns:xlink="http://www.w3.org/1999/xlink"><defs>
    <style>
      .cls-1 {
        fill-rule: evenodd;
      }
    </style>
  
    <style>
      .cls-1 {
        fill-rule: evenodd;
      }
    </style>
  
    <style>
      .cls-1 {
        fill-rule: evenodd;
      }
    </style>
  </defs><symbol id="vk" viewBox="0 0 799.719 452.688">

  <path class="cls-1" d="M688.784,287.85c26.536,25.906,54.544,50.282,78.345,78.8,10.513,12.673,20.467,25.752,28.082,40.46,10.789,20.909,1.017,43.917-17.732,45.165l-116.544-.052c-30.059,2.494-54.038-9.607-74.2-30.158-16.137-16.434-31.079-33.926-46.6-50.916-6.36-6.944-13.018-13.478-20.971-18.643-15.91-10.326-29.721-7.164-38.812,9.429C471.1,378.813,469,397.5,468.089,416.309c-1.248,27.442-9.544,34.657-37.111,35.913-58.913,2.778-114.825-6.135-166.765-35.853-45.793-26.2-81.3-63.185-112.21-105.057C91.826,229.778,45.742,140.187,4.323,48.085-5,27.335,1.818,16.2,24.714,15.8c38.02-.739,76.035-0.686,114.1-0.053,15.452,0.226,25.682,9.089,31.648,23.687,20.57,50.577,45.74,98.7,77.334,143.3,8.413,11.874,16.992,23.749,29.209,32.107,13.516,9.255,23.805,6.187,30.164-8.868,4.035-9.546,5.8-19.828,6.711-30.052,3.011-35.175,3.409-70.289-1.874-105.341C308.762,48.706,296.44,34.544,274.611,30.4c-11.14-2.11-9.481-6.255-4.088-12.613C279.891,6.826,288.7,0,306.264,0H437.978c20.735,4.092,25.34,13.407,28.179,34.271l0.112,146.3c-0.225,8.077,4.035,32.045,18.584,37.391,11.643,3.806,19.319-5.509,26.305-12.892,31.536-33.469,54.043-73.023,74.15-113.98,8.924-18.009,16.6-36.713,24.032-55.4C614.848,21.823,623.494,15,639.115,15.3L765.88,15.415a66.868,66.868,0,0,1,11.2.678c21.361,3.64,27.214,12.828,20.616,33.687-10.395,32.725-30.62,60-50.4,87.394-21.141,29.251-43.75,57.5-64.715,86.924-19.261,26.87-17.731,40.413,6.2,63.751h0Z" transform="translate(-0.281)"/>
</symbol><symbol id="instagram" viewBox="0 0 97 97">

  <path id="Forma_1" data-name="Forma 1" class="cls-1" d="M12.447,0H84.553A12.156,12.156,0,0,1,97,12.446V84.553A12.156,12.156,0,0,1,84.553,97H12.447A12.156,12.156,0,0,1,0,84.553V12.446A12.156,12.156,0,0,1,12.447,0h0ZM70.662,10.774A4.379,4.379,0,0,0,66.3,15.141V25.594a4.379,4.379,0,0,0,4.367,4.368H81.626a4.38,4.38,0,0,0,4.366-4.368V15.141a4.379,4.379,0,0,0-4.366-4.367H70.662ZM86.039,41.019H77.5a28.389,28.389,0,0,1,1.245,8.322c0,16.136-13.5,29.216-30.154,29.216S18.44,65.478,18.44,49.342a28.334,28.334,0,0,1,1.245-8.322H10.775V82a3.868,3.868,0,0,0,3.857,3.857H82.185A3.867,3.867,0,0,0,86.041,82V41.019h0ZM48.59,29.411c-10.759,0-19.482,8.451-19.482,18.878S37.832,67.167,48.59,67.167s19.485-8.452,19.485-18.878S59.352,29.411,48.59,29.411Z"/>
</symbol><symbol id="facebook" viewBox="0 0 49 96">

  <path id="Forma_1" data-name="Forma 1" class="cls-1" d="M51,15.935l-9.063,0c-7.105,0-8.481,3.367-8.481,8.308v10.9H50.4l0,17.067H33.455V96H15.779V52.21H1V35.143H15.779V22.558C15.779,7.952,24.726,0,37.793,0L51,0.02V15.935h0Z" transform="translate(-1)"/>
</symbol></svg>